<?xml version="1.0" encoding="UTF-8"?>
<svg id="svg2" xmlns="http://www.w3.org/2000/svg" xmlns:xlink="http://www.w3.org/1999/xlink" viewBox="0 0 778.0001 778.0002">
  <defs>
    <style>
      .cls-1 {
        stroke: url(#radial-gradient);
        stroke-width: 37.5001px;
      }

      .cls-1, .cls-2, .cls-3 {
        fill: none;
      }

      .cls-2 {
        stroke: url(#radial-gradient-3);
        stroke-miterlimit: 4;
        stroke-width: 37.5002px;
      }

      .cls-3 {
        stroke: url(#radial-gradient-2);
        stroke-miterlimit: 4;
        stroke-width: 37.5002px;
      }

      .cls-4 {
        fill: #0581c4;
        stroke-width: 0px;
      }
    </style>
    <radialGradient id="radial-gradient" cx="-131.49769" cy="1421.19096" fx="-131.49769" fy="1421.19096" r="163.65582" gradientTransform="translate(-713.66863 -834.08844) rotate(132.72669) scale(1.17475 -1.06294) skewX(5.74266)" gradientUnits="userSpaceOnUse">
      <stop offset="0" stop-color="#41b3ec"/>
      <stop offset="1" stop-color="#0581c4"/>
    </radialGradient>
    <radialGradient id="radial-gradient-2" cx="697.40671" cy="478.98222" fx="697.40671" fy="478.98222" r="163.70939" gradientTransform="translate(-645.48581 236.43153) rotate(56.30573) scale(.94881 -1.30488) skewX(-7.05482)" xlink:href="#radial-gradient"/>
    <radialGradient id="radial-gradient-3" cx="-613.92142" cy="488.29" fx="-613.92142" fy="488.29" r="163.09647" gradientTransform="translate(1668.47917 293.34199) rotate(-48.49567) scale(1.6105 -1.5942) skewX(-4.94649)" xlink:href="#radial-gradient"/>
  </defs>
  <g id="_namedview51_" data-name="&amp;lt;namedview51&amp;gt;">
    <ellipse id="path3803" class="cls-1" cx="389.00005" cy="389.00009" rx="370.25" ry="196.14242"/>
    <ellipse id="path4023" class="cls-3" cx="389.00004" cy="389.00013" rx="180.4175" ry="402.52038" transform="translate(-131.37811 210.53803) rotate(-26.07076)"/>
    <ellipse id="path4029" class="cls-2" cx="389.00002" cy="389.00006" rx="402.52037" ry="180.41748" transform="translate(-131.37809 567.46208) rotate(-63.92925)"/>
    <path class="cls-4" d="m305.30076,344.25763c9.12089,0,16.57342,8.2025,16.57342,18.39383v52.69669c0,10.19188-7.45253,18.39438-16.57342,18.39438h-63.51292v-89.4849h63.51292Zm-46.27197,70.09637h45.38224v-50.7084h-45.38224v50.7084Z"/>
    <path class="cls-4" d="m334.44236,344.25763h17.35205v89.4849h-17.35205v-89.4849Z"/>
    <path class="cls-4" d="m430.76687,344.25763h17.90701v89.4849h-17.35007v-60.02972c-9.00979,11.93136-18.68713,25.10567-27.58632,36.78821l-27.69643-36.66408v59.90559h-17.24046v-89.4849h17.79691l27.13998,36.16646,27.02938-36.16646Z"/>
    <path class="cls-4" d="m536.21226,363.6456h-56.50574v15.66022h45.49333v19.38852h-45.49333v15.65966h56.50574v19.38852h-73.96839v-89.4849h73.96839v19.38797Z"/>
  </g>
</svg>